<mxfile host="Electron" agent="Mozilla/5.0 (Windows NT 10.0; Win64; x64) AppleWebKit/537.36 (KHTML, like Gecko) draw.io/25.0.2 Chrome/128.0.6613.186 Electron/32.2.5 Safari/537.36" version="25.0.2">
  <diagram name="Página-1" id="zpuI9rxOAaI5oXwA6J3F">
    <mxGraphModel dx="2327" dy="899" grid="1" gridSize="10" guides="1" tooltips="1" connect="1" arrows="1" fold="1" page="1" pageScale="1" pageWidth="827" pageHeight="1169" math="0" shadow="0">
      <root>
        <mxCell id="0" />
        <mxCell id="1" parent="0" />
        <mxCell id="ysN5TJtVO-UGrlRR-ukw-4" style="edgeStyle=orthogonalEdgeStyle;rounded=0;orthogonalLoop=1;jettySize=auto;html=1;exitX=0.5;exitY=1;exitDx=0;exitDy=0;" edge="1" parent="1" source="ysN5TJtVO-UGrlRR-ukw-2">
          <mxGeometry relative="1" as="geometry">
            <mxPoint x="410" y="160" as="targetPoint" />
          </mxGeometry>
        </mxCell>
        <mxCell id="ysN5TJtVO-UGrlRR-ukw-2" value="INÍCIO" style="rounded=1;whiteSpace=wrap;html=1;" vertex="1" parent="1">
          <mxGeometry x="350" y="40" width="120" height="60" as="geometry" />
        </mxCell>
        <mxCell id="ysN5TJtVO-UGrlRR-ukw-6" style="edgeStyle=orthogonalEdgeStyle;rounded=0;orthogonalLoop=1;jettySize=auto;html=1;" edge="1" parent="1" source="ysN5TJtVO-UGrlRR-ukw-3">
          <mxGeometry relative="1" as="geometry">
            <mxPoint x="410" y="290" as="targetPoint" />
          </mxGeometry>
        </mxCell>
        <mxCell id="ysN5TJtVO-UGrlRR-ukw-3" value="N1, N2, N3" style="html=1;strokeWidth=2;shape=manualInput;whiteSpace=wrap;rounded=1;size=26;arcSize=11;" vertex="1" parent="1">
          <mxGeometry x="360" y="170" width="100" height="60" as="geometry" />
        </mxCell>
        <mxCell id="ysN5TJtVO-UGrlRR-ukw-5" style="edgeStyle=orthogonalEdgeStyle;rounded=0;orthogonalLoop=1;jettySize=auto;html=1;exitX=0.5;exitY=1;exitDx=0;exitDy=0;" edge="1" parent="1" source="ysN5TJtVO-UGrlRR-ukw-3" target="ysN5TJtVO-UGrlRR-ukw-3">
          <mxGeometry relative="1" as="geometry" />
        </mxCell>
        <mxCell id="ysN5TJtVO-UGrlRR-ukw-8" style="edgeStyle=orthogonalEdgeStyle;rounded=0;orthogonalLoop=1;jettySize=auto;html=1;exitX=0;exitY=0.5;exitDx=0;exitDy=0;" edge="1" parent="1" source="ysN5TJtVO-UGrlRR-ukw-7">
          <mxGeometry relative="1" as="geometry">
            <mxPoint x="-70" y="525" as="targetPoint" />
          </mxGeometry>
        </mxCell>
        <mxCell id="ysN5TJtVO-UGrlRR-ukw-9" style="edgeStyle=orthogonalEdgeStyle;rounded=0;orthogonalLoop=1;jettySize=auto;html=1;exitX=1;exitY=0.5;exitDx=0;exitDy=0;" edge="1" parent="1" source="ysN5TJtVO-UGrlRR-ukw-7">
          <mxGeometry relative="1" as="geometry">
            <mxPoint x="310" y="620" as="targetPoint" />
            <Array as="points">
              <mxPoint x="180" y="526" />
              <mxPoint x="310" y="526" />
            </Array>
          </mxGeometry>
        </mxCell>
        <mxCell id="ysN5TJtVO-UGrlRR-ukw-7" value="N1 &amp;gt; N2&lt;div&gt;E&lt;/div&gt;&lt;div&gt;N1 &amp;gt; N3&lt;/div&gt;" style="rhombus;whiteSpace=wrap;html=1;" vertex="1" parent="1">
          <mxGeometry x="60" y="470" width="120" height="110" as="geometry" />
        </mxCell>
        <mxCell id="ysN5TJtVO-UGrlRR-ukw-10" value="SIM" style="text;html=1;align=center;verticalAlign=middle;whiteSpace=wrap;rounded=0;" vertex="1" parent="1">
          <mxGeometry x="-30" y="500" width="60" height="30" as="geometry" />
        </mxCell>
        <mxCell id="ysN5TJtVO-UGrlRR-ukw-11" value="NÃO" style="text;html=1;align=center;verticalAlign=middle;whiteSpace=wrap;rounded=0;" vertex="1" parent="1">
          <mxGeometry x="210" y="500" width="60" height="30" as="geometry" />
        </mxCell>
        <mxCell id="ysN5TJtVO-UGrlRR-ukw-40" style="edgeStyle=orthogonalEdgeStyle;rounded=0;orthogonalLoop=1;jettySize=auto;html=1;" edge="1" parent="1">
          <mxGeometry relative="1" as="geometry">
            <mxPoint x="430" y="1050" as="targetPoint" />
            <mxPoint x="-140" y="580" as="sourcePoint" />
            <Array as="points">
              <mxPoint x="-140" y="1050" />
            </Array>
          </mxGeometry>
        </mxCell>
        <mxCell id="ysN5TJtVO-UGrlRR-ukw-12" value="&quot;N1 É O MAIOR NÚMERO ENTRE ELES&quot;" style="shape=document;whiteSpace=wrap;html=1;boundedLbl=1;" vertex="1" parent="1">
          <mxGeometry x="-200" y="500" width="120" height="80" as="geometry" />
        </mxCell>
        <mxCell id="ysN5TJtVO-UGrlRR-ukw-17" style="edgeStyle=orthogonalEdgeStyle;rounded=0;orthogonalLoop=1;jettySize=auto;html=1;exitX=0;exitY=0.5;exitDx=0;exitDy=0;" edge="1" parent="1" source="ysN5TJtVO-UGrlRR-ukw-13">
          <mxGeometry relative="1" as="geometry">
            <mxPoint x="120" y="680" as="targetPoint" />
          </mxGeometry>
        </mxCell>
        <mxCell id="ysN5TJtVO-UGrlRR-ukw-39" style="edgeStyle=orthogonalEdgeStyle;rounded=0;orthogonalLoop=1;jettySize=auto;html=1;" edge="1" parent="1" source="ysN5TJtVO-UGrlRR-ukw-13">
          <mxGeometry relative="1" as="geometry">
            <mxPoint x="510" y="770" as="targetPoint" />
          </mxGeometry>
        </mxCell>
        <mxCell id="ysN5TJtVO-UGrlRR-ukw-13" value="N2 &amp;gt; N1&lt;div&gt;E&lt;/div&gt;&lt;div&gt;N2 &amp;gt; N3&lt;/div&gt;" style="rhombus;whiteSpace=wrap;html=1;" vertex="1" parent="1">
          <mxGeometry x="260" y="630" width="100" height="100" as="geometry" />
        </mxCell>
        <mxCell id="ysN5TJtVO-UGrlRR-ukw-15" value="SIM" style="text;html=1;align=center;verticalAlign=middle;whiteSpace=wrap;rounded=0;" vertex="1" parent="1">
          <mxGeometry x="160" y="650" width="60" height="30" as="geometry" />
        </mxCell>
        <mxCell id="ysN5TJtVO-UGrlRR-ukw-41" style="edgeStyle=orthogonalEdgeStyle;rounded=0;orthogonalLoop=1;jettySize=auto;html=1;" edge="1" parent="1" source="ysN5TJtVO-UGrlRR-ukw-18">
          <mxGeometry relative="1" as="geometry">
            <mxPoint x="500" y="1010" as="targetPoint" />
            <Array as="points">
              <mxPoint x="50" y="970" />
              <mxPoint x="501" y="970" />
              <mxPoint x="501" y="1010" />
            </Array>
          </mxGeometry>
        </mxCell>
        <mxCell id="ysN5TJtVO-UGrlRR-ukw-18" value="&quot;N2 É O MAIOR NÚMERO ENTRE ELES&quot;" style="shape=document;whiteSpace=wrap;html=1;boundedLbl=1;" vertex="1" parent="1">
          <mxGeometry x="-10" y="650" width="120" height="80" as="geometry" />
        </mxCell>
        <mxCell id="ysN5TJtVO-UGrlRR-ukw-19" value="NÃO" style="text;html=1;align=center;verticalAlign=middle;whiteSpace=wrap;rounded=0;" vertex="1" parent="1">
          <mxGeometry x="400" y="650" width="60" height="30" as="geometry" />
        </mxCell>
        <mxCell id="ysN5TJtVO-UGrlRR-ukw-35" style="edgeStyle=orthogonalEdgeStyle;rounded=0;orthogonalLoop=1;jettySize=auto;html=1;" edge="1" parent="1" source="ysN5TJtVO-UGrlRR-ukw-20">
          <mxGeometry relative="1" as="geometry">
            <mxPoint x="290" y="830" as="targetPoint" />
            <Array as="points">
              <mxPoint x="290" y="830" />
            </Array>
          </mxGeometry>
        </mxCell>
        <mxCell id="ysN5TJtVO-UGrlRR-ukw-22" value="SIM" style="text;html=1;align=center;verticalAlign=middle;whiteSpace=wrap;rounded=0;" vertex="1" parent="1">
          <mxGeometry x="350" y="790" width="60" height="30" as="geometry" />
        </mxCell>
        <mxCell id="ysN5TJtVO-UGrlRR-ukw-42" style="edgeStyle=orthogonalEdgeStyle;rounded=0;orthogonalLoop=1;jettySize=auto;html=1;" edge="1" parent="1" source="ysN5TJtVO-UGrlRR-ukw-24">
          <mxGeometry relative="1" as="geometry">
            <mxPoint x="550" y="1010" as="targetPoint" />
            <Array as="points">
              <mxPoint x="220" y="920" />
              <mxPoint x="551" y="920" />
              <mxPoint x="551" y="1010" />
            </Array>
          </mxGeometry>
        </mxCell>
        <mxCell id="ysN5TJtVO-UGrlRR-ukw-24" value="&quot;N3 É O MAIOR NÚMERO ENTRE ELES&quot;" style="shape=document;whiteSpace=wrap;html=1;boundedLbl=1;" vertex="1" parent="1">
          <mxGeometry x="160" y="800" width="120" height="80" as="geometry" />
        </mxCell>
        <mxCell id="ysN5TJtVO-UGrlRR-ukw-28" value="FIM" style="rounded=1;whiteSpace=wrap;html=1;" vertex="1" parent="1">
          <mxGeometry x="445" y="1020" width="120" height="60" as="geometry" />
        </mxCell>
        <mxCell id="ysN5TJtVO-UGrlRR-ukw-45" style="edgeStyle=orthogonalEdgeStyle;rounded=0;orthogonalLoop=1;jettySize=auto;html=1;exitX=0;exitY=0.5;exitDx=0;exitDy=0;" edge="1" parent="1" source="ysN5TJtVO-UGrlRR-ukw-29">
          <mxGeometry relative="1" as="geometry">
            <mxPoint x="120" y="460" as="targetPoint" />
            <Array as="points">
              <mxPoint x="120" y="360" />
              <mxPoint x="120" y="360" />
            </Array>
          </mxGeometry>
        </mxCell>
        <mxCell id="ysN5TJtVO-UGrlRR-ukw-47" style="edgeStyle=orthogonalEdgeStyle;rounded=0;orthogonalLoop=1;jettySize=auto;html=1;" edge="1" parent="1" source="ysN5TJtVO-UGrlRR-ukw-29">
          <mxGeometry relative="1" as="geometry">
            <mxPoint x="710.0000000000005" y="360" as="targetPoint" />
          </mxGeometry>
        </mxCell>
        <mxCell id="ysN5TJtVO-UGrlRR-ukw-29" value="N1 != N2&lt;div&gt;E&lt;/div&gt;&lt;div&gt;N2 != N3&lt;/div&gt;&lt;div&gt;E&lt;/div&gt;&lt;div&gt;N3 != N1&lt;/div&gt;" style="rhombus;whiteSpace=wrap;html=1;" vertex="1" parent="1">
          <mxGeometry x="340" y="300" width="140" height="120" as="geometry" />
        </mxCell>
        <mxCell id="ysN5TJtVO-UGrlRR-ukw-49" style="edgeStyle=orthogonalEdgeStyle;rounded=0;orthogonalLoop=1;jettySize=auto;html=1;" edge="1" parent="1" source="ysN5TJtVO-UGrlRR-ukw-33">
          <mxGeometry relative="1" as="geometry">
            <mxPoint x="480" y="200" as="targetPoint" />
            <Array as="points">
              <mxPoint x="805" y="200" />
              <mxPoint x="480" y="200" />
            </Array>
          </mxGeometry>
        </mxCell>
        <mxCell id="ysN5TJtVO-UGrlRR-ukw-33" value="&quot;INVÁLIDO. VOLTE AO INÍCIO E DIGITE NÚMEROS DIFERENTES.&quot;" style="shape=document;whiteSpace=wrap;html=1;boundedLbl=1;" vertex="1" parent="1">
          <mxGeometry x="730" y="320" width="150" height="100" as="geometry" />
        </mxCell>
        <mxCell id="ysN5TJtVO-UGrlRR-ukw-20" value="N3 &amp;gt; N1&lt;div&gt;E&lt;div&gt;N3 &amp;gt; N2&lt;/div&gt;&lt;/div&gt;" style="rhombus;whiteSpace=wrap;html=1;" vertex="1" parent="1">
          <mxGeometry x="450" y="780" width="110" height="100" as="geometry" />
        </mxCell>
        <mxCell id="ysN5TJtVO-UGrlRR-ukw-46" value="SIM" style="text;html=1;align=center;verticalAlign=middle;whiteSpace=wrap;rounded=0;" vertex="1" parent="1">
          <mxGeometry x="200" y="335" width="60" height="30" as="geometry" />
        </mxCell>
        <mxCell id="ysN5TJtVO-UGrlRR-ukw-48" value="NÃO" style="text;html=1;align=center;verticalAlign=middle;whiteSpace=wrap;rounded=0;" vertex="1" parent="1">
          <mxGeometry x="565" y="335" width="60" height="30" as="geometry" />
        </mxCell>
      </root>
    </mxGraphModel>
  </diagram>
</mxfile>
